<svg xmlns="http://www.w3.org/2000/svg" viewBox="0 0 120 40" width="120" height="40" role="img" aria-label="致远行">
  <defs>
    <linearGradient id="g" x1="0" y1="0" x2="1" y2="1">
      <stop offset="0" stop-color="#26403D"/>
      <stop offset="1" stop-color="#C2A15C"/>
    </linearGradient>
  </defs>
  <rect x="0" y="4" width="32" height="32" rx="9" fill="url(#g)"/>
  <path d="M9 14h14a2 2 0 0 1 2 2v7a2 2 0 0 1-2 2H14l-4 4v-4h-1a2 2 0 0 1-2-2v-7a2 2 0 0 1 2-2z" fill="#fff"/>
  <circle cx="14" cy="19.5" r="1.5" fill="#26403D"/>
  <circle cx="18" cy="19.5" r="1.5" fill="#26403D"/>
  <circle cx="22" cy="19.5" r="1.5" fill="#26403D"/>
  <text x="42" y="28" font-family="'Noto Sans SC','PingFang SC',sans-serif" font-size="20" font-weight="700" fill="#26403D" letter-spacing="1">致远行</text>
</svg>
